# Blender 5.1.2
# www.blender.org
o PSOne_Model
v -0.694208 0.000000 0.312997
v 1.041481 0.300435 0.312997
v -0.694208 0.300435 0.312997
v 1.041481 0.000000 0.312997
v 0.173636 -0.000000 -0.797034
v 0.173636 0.300472 1.423028
v 0.173636 0.000000 1.423028
v 0.173636 0.300471 -0.797034
v 0.173636 0.000000 0.312997
v 0.173636 0.350525 0.312997
v 0.999027 0.300435 -0.665150
v 0.867626 0.300435 -0.797034
v 0.867626 -0.000000 -0.797034
v 0.999027 -0.000000 -0.665150
v 0.867626 0.300435 1.423028
v 0.999027 0.300435 1.291145
v 0.999027 0.000000 1.291145
v 0.867626 0.000000 1.423028
v -0.520354 0.300435 -0.797034
v -0.651754 0.300435 -0.665150
v -0.651754 -0.000000 -0.665150
v -0.520354 -0.000000 -0.797034
v -0.651754 0.300435 1.291145
v -0.520354 0.300435 1.423028
v -0.520354 0.000000 1.423028
v -0.651754 0.000000 1.291145
v 0.867627 0.316809 0.312997
v 0.173636 0.315222 -0.665150
v -0.520354 0.316809 0.312997
v 0.173636 0.315222 1.291145
v 0.867627 0.311189 1.291145
v -0.520354 0.311184 1.291145
v 0.867627 0.311184 -0.665151
v -0.520354 0.311184 -0.665150
v 0.173636 -0.000000 -0.665150
v 0.173636 0.000000 1.291145
v -0.520354 0.000000 0.312997
v 0.867626 0.000000 0.312997
v 0.867627 -0.000000 -0.665150
v -0.520354 0.000000 1.291145
v 0.867626 0.000000 1.291145
v -0.520354 -0.000000 -0.665150
vn -0.0000 -1.0000 -0.0000
vn -0.0272 0.9994 0.0209
vn -0.0000 0.9954 -0.0962
vn -0.0029 0.9954 -0.0962
vn -0.0000 -0.0000 -1.0000
vn 0.0885 0.9961 -0.0000
vn 0.0885 0.9961 0.0048
vn 0.0885 0.9961 -0.0048
vn -0.0000 -0.0000 1.0000
vn -0.9991 -0.0000 0.0434
vn -0.9991 -0.0000 -0.0434
vn 0.9991 -0.0000 0.0434
vn 0.7084 -0.0000 -0.7058
vn -0.7084 -0.0000 0.7058
vn 0.7084 -0.0000 0.7058
vn -0.7084 -0.0000 -0.7058
vn 0.9991 -0.0000 -0.0434
vn 0.0813 0.9934 0.0810
vn 0.0029 0.9954 0.0962
vn -0.0000 0.9954 0.0962
vn 0.0272 0.9994 0.0209
vn -0.0029 0.9954 0.0962
vn -0.0813 0.9934 0.0810
vn -0.0885 0.9961 0.0048
vn -0.0885 0.9961 -0.0000
vn 0.0272 0.9994 -0.0209
vn 0.0029 0.9954 -0.0962
vn 0.0813 0.9934 -0.0810
vn -0.0272 0.9994 -0.0209
vn -0.0885 0.9961 -0.0048
vn -0.0813 0.9934 -0.0810
vt 0.570010 0.277342
vt 0.612574 0.277342
vt 0.612574 0.516815
vt 0.580404 0.516815
vt 0.298103 0.682615
vt 0.297949 0.852452
vt 0.058743 0.852124
vt 0.058873 0.682398
vt 0.569826 0.682861
vt 0.569518 0.852673
vt 0.537156 0.852558
vt 0.537334 0.682832
vt 0.486816 0.252852
vt 0.486816 0.339260
vt 0.287216 0.339271
vt 0.287216 0.252852
vt 0.298296 0.470066
vt 0.298257 0.512778
vt 0.059051 0.512673
vt 0.058993 0.480428
vt 0.537579 0.480861
vt 0.537463 0.513106
vt 0.087617 0.339260
vt 0.087617 0.252852
vt 0.486816 0.339669
vt 0.486816 0.426077
vt 0.287216 0.426088
vt 0.287216 0.339669
vt 0.087617 0.426077
vt 0.087617 0.339669
vt 0.580404 0.037869
vt 0.612573 0.037869
vt 0.782478 0.005581
vt 0.952383 0.005581
vt 0.952383 0.037869
vt 0.782478 0.037869
vt 0.498777 0.053255
vt 0.498777 0.128322
vt 0.254146 0.128322
vt 0.254147 0.053255
vt 0.009516 0.128322
vt 0.009516 0.053255
vt 0.254147 0.128668
vt 0.254147 0.203734
vt 0.009516 0.203734
vt 0.009516 0.128668
vt 0.782478 0.277342
vt 0.952383 0.277342
vt 0.952383 0.516815
vt 0.782478 0.516815
vt 0.034073 0.339260
vt 0.034073 0.252852
vt 0.034073 0.426077
vt 0.034073 0.339669
vt 0.540360 0.339669
vt 0.540360 0.426077
vt 0.540360 0.252852
vt 0.540360 0.339260
vt 0.498777 0.128668
vt 0.498777 0.203734
vt 0.026688 0.512558
vt 0.026380 0.682369
vt 0.026380 0.852181
vt 0.058627 0.884369
vt 0.297910 0.895164
vt 0.569826 0.513050
vt 0.537213 0.884803
vt 0.984553 0.037869
vt 0.994946 0.277342
vt 0.612574 0.549103
vt 0.782478 0.549103
vt 0.952383 0.549103
vt 0.984553 0.516815
vt 0.612573 0.005581
s 1
f 1/1/1 37/2/1 40/3/1 26/4/1
f 10/5/2 29/6/2 32/7/2 30/8/2
f 8/9/3 19/10/4 34/11/4 28/12/3
f 22/13/5 19/14/5 8/15/5 5/16/5
f 2/17/6 27/18/6 31/19/7 16/20/7
f 11/21/8 33/22/8 27/18/6 2/17/6
f 5/16/5 8/15/5 12/23/5 13/24/5
f 18/25/9 15/26/9 6/27/9 7/28/9
f 7/28/9 6/27/9 24/29/9 25/30/9
f 21/31/1 42/32/1 37/2/1 1/1/1
f 5/33/1 13/34/1 39/35/1 35/36/1
f 26/37/10 23/38/10 3/39/10 1/40/10
f 1/40/11 3/39/11 20/41/11 21/42/11
f 4/43/12 2/44/12 16/45/12 17/46/12
f 9/47/1 38/48/1 41/49/1 36/50/1
f 11/51/13 14/52/13 13/24/13 12/23/13
f 25/30/14 24/29/14 23/53/14 26/54/14
f 15/26/15 18/25/15 17/55/15 16/56/15
f 19/14/16 22/13/16 21/57/16 20/58/16
f 14/59/17 11/60/17 2/44/17 4/43/17
f 16/20/18 31/19/18 15/61/18
f 15/61/19 31/19/19 30/8/20 6/62/20
f 30/8/21 31/19/21 27/18/21 10/5/21
f 30/8/20 32/7/22 24/63/22 6/62/20
f 24/63/23 32/7/23 23/64/23
f 23/64/24 32/7/24 29/6/25 3/65/25
f 27/18/26 33/22/26 28/12/26 10/5/26
f 28/12/3 33/22/27 12/66/27 8/9/3
f 12/66/28 33/22/28 11/21/28
f 28/12/29 34/11/29 29/6/29 10/5/29
f 29/6/25 34/11/30 20/67/30 3/65/25
f 20/67/31 34/11/31 19/10/31
f 35/36/1 39/35/1 38/48/1 9/47/1
f 38/48/1 39/35/1 14/68/1 4/69/1
f 14/68/1 39/35/1 13/34/1
f 26/4/1 40/3/1 25/70/1
f 25/70/1 40/3/1 36/50/1 7/71/1
f 36/50/1 40/3/1 37/2/1 9/47/1
f 36/50/1 41/49/1 18/72/1 7/71/1
f 18/72/1 41/49/1 17/73/1
f 17/73/1 41/49/1 38/48/1 4/69/1
f 37/2/1 42/32/1 35/36/1 9/47/1
f 35/36/1 42/32/1 22/74/1 5/33/1
f 22/74/1 42/32/1 21/31/1
